<?xml version="1.0"?>
<svg width="25" height="25" xmlns="http://www.w3.org/2000/svg" xmlns:svg="http://www.w3.org/2000/svg" version="1.1">
 <title>cross</title>
 <g class="layer">
  <title>Layer 1</title>
  <g fill="none" fill-rule="evenodd" id="Page-1">
   <g fill="#000000" id="Icon-Set-Filled" transform="translate(-469 -1041)">
    <path d="m486.25,1053.74l4.84,-4.93c1.34,-1.36 1.34,-3.57 0,-4.93c-1.33,-1.37 -3.51,-1.37 -4.84,0l-4.85,4.93l-4.84,-4.93c-1.33,-1.37 -3.51,-1.37 -4.84,0c-1.34,1.36 -1.34,3.57 0,4.93l4.84,4.93l-4.84,4.94c-1.34,1.36 -1.34,3.57 0,4.93c1.33,1.37 3.51,1.37 4.84,0l4.84,-4.93l4.85,4.93c1.33,1.37 3.51,1.37 4.84,0c1.34,-1.36 1.34,-3.57 0,-4.93l-4.84,-4.94" fill="#fff" id="cross"/>
   </g>
  </g>
 </g>
</svg>